# xmcd CD database file
#
# Track frame offsets:
#	150
#	12695
#	24802
#	40200
#
# Disc length: 682 seconds
#
# Revision: 0
# Processed by: cddbd v1.5PL3 Copyright (c) Steve Scherf et al.
# Submitted via: CDex 1.50
#
DISCID=2602a804
DTITLE=POTSHOT - LOVE CHANGES EVERYTHING - CLEAR
DYEAR=2003
DGENRE=Ska
TTITLE0=CLEAR
TTITLE1=LOVE CHANGES EVERYTHING
TTITLE2=PALACE PIER (inst.)
TTITLE3=I WANNA BE A STAR (originally by Accidents)
EXTD=YEAR: 2003
EXTT0=
EXTT1=
EXTT2=
EXTT3=
PLAYORDER=
